<?xml version="1.0" encoding="iso-8859-1"?>
<!-- Uploaded to: SVG Repo, www.svgrepo.com, Generator: SVG Repo Mixer Tools -->
<svg height="800px" width="800px" version="1.1" id="Layer_1" xmlns="http://www.w3.org/2000/svg" xmlns:xlink="http://www.w3.org/1999/xlink" 
	 viewBox="0 0 512 512" xml:space="preserve">
<path style="fill:#88420E;" d="M279.274,377.669l40.863-40.863c30.674-30.674,30.654-80.429-0.022-111.104l-33.84-33.84
	c-30.674-30.674-80.408-30.674-111.083,0l-40.854,40.853c-69.346,5.466-123.886,63.45-123.888,134.206
	c0.009,74.359,60.27,134.62,134.62,134.622C215.819,501.541,273.794,447.006,279.274,377.669z"/>
<g>
	<path style="fill:#491F03;" d="M228.768,343.275c0-33.166-26.875-60.043-60.041-60.041c-33.154-0.009-60.038,26.875-60.028,60.027
		c0,33.164,26.875,60.041,60.041,60.041C201.886,403.303,228.768,376.42,228.768,343.275z"/>
	<path style="fill:#491F03;" d="M494.442,17.541c-9.468-9.467-24.823-9.468-34.29,0l-269.744,269.74
		c15.711,6.087,28.212,18.586,34.304,34.295L494.452,51.84C503.92,42.373,503.919,27.019,494.442,17.541z"/>
</g>
<path d="M498.971,62.097l2.868-2.867c6.554-6.553,10.163-15.267,10.161-24.536s-3.614-17.984-10.17-24.539
	c-13.528-13.527-35.54-13.527-49.067,0l-2.868,2.867l-7.052-7.052c-4.08-4.08-10.697-4.08-14.778,0c-4.08,4.08-4.08,10.697,0,14.778
	l7.052,7.052l-10.83,10.83l-7.052-7.052c-4.081-4.081-10.697-4.08-14.777,0s-4.081,10.697,0,14.777l7.052,7.052L398.826,64.09
	l-7.052-7.052c-4.08-4.08-10.697-4.08-14.778,0c-4.08,4.08-4.08,10.697,0,14.777l7.052,7.052l-98.472,98.471
	c-34.893-27.348-85.65-24.987-117.77,7.136l-38.186,38.184c-34.792,3.685-66.937,19.772-90.887,45.567
	C13.756,295.127,0.001,330.177,0,366.923c0.009,79.99,65.088,145.067,145.069,145.068c36.74,0,71.788-13.754,98.687-38.727
	c25.793-23.946,41.882-56.087,45.573-90.875l38.196-38.196c32.119-32.119,34.475-82.876,7.125-117.779l98.474-98.472l7.051,7.051
	c2.041,2.041,4.715,3.061,7.388,3.061c2.674,0,5.349-1.02,7.388-3.061c4.08-4.08,4.08-10.697,0-14.778l-7.051-7.051l10.683-10.683
	l7.051,7.051c2.041,2.041,4.715,3.061,7.388,3.061c2.674,0,5.349-1.021,7.388-3.061c4.08-4.08,4.081-10.697,0-14.777l-7.051-7.052
	l10.83-10.83l7.051,7.051c2.041,2.041,4.715,3.061,7.388,3.061c2.674,0,5.349-1.02,7.388-3.061c4.08-4.08,4.08-10.697,0-14.778
	L498.971,62.097z M467.54,24.93c5.38-5.379,14.134-5.378,19.513,0c2.61,2.61,4.048,6.078,4.049,9.767c0,3.685-1.434,7.15-4.04,9.755
	l-2.868,2.868l-19.523-19.523L467.54,24.93z M332.684,281.256c0.005,18.197-7.075,35.301-19.936,48.16l-40.863,40.864
	c-1.759,1.759-2.832,4.087-3.027,6.565c-5.064,64.064-59.438,114.248-123.789,114.249c-68.46-0.002-124.163-55.706-124.171-124.173
	c0.002-64.365,50.193-118.74,114.264-123.791c2.48-0.196,4.809-1.27,6.567-3.028l40.854-40.853
	c12.862-12.863,29.962-19.945,48.153-19.945c14.548,0,28.393,4.542,39.937,12.937l-83.099,83.098
	c-6.068-1.672-12.395-2.556-18.864-2.555c-18.824,0-36.52,7.332-49.829,20.644c-13.309,13.313-20.637,31.012-20.632,49.832
	c0,38.868,31.622,70.49,70.489,70.49h0.001c0.001,0,0.001,0,0.002,0c18.821,0,36.518-7.332,49.831-20.644
	c13.313-13.313,20.644-31.01,20.644-49.832c0-6.468-0.885-12.797-2.56-18.867l83.09-83.088
	C328.138,252.863,332.681,266.708,332.684,281.256z M218.319,343.275c0,13.24-5.158,25.69-14.524,35.055
	c-9.365,9.366-21.815,14.524-35.055,14.523c-0.001,0-0.001,0-0.001,0c-27.345,0-49.592-22.247-49.592-49.595
	c-0.003-13.24,5.15-25.69,14.513-35.054s21.81-14.522,35.068-14.522c13.249-0.001,25.703,5.157,35.069,14.522
	C213.16,317.569,218.319,330.024,218.319,343.275z M227.378,304.133c-2.552-3.807-5.493-7.393-8.805-10.705
	c-3.316-3.317-6.907-6.262-10.719-8.815l190.972-190.97l19.522,19.522L227.378,304.133z M433.126,98.388l-19.523-19.523
	l10.683-10.683l19.523,19.523L433.126,98.388z M458.586,72.928l-19.523-19.522l10.83-10.83l19.523,19.523L458.586,72.928z"/>
<path d="M80.606,373.435c-4.08-4.082-10.697-4.082-14.777-0.003c-4.081,4.08-4.082,10.696-0.002,14.777l3.307,3.308
	c2.041,2.042,4.715,3.062,7.39,3.062c2.674,0,5.348-1.02,7.387-3.059c4.081-4.08,4.082-10.696,0.002-14.777L80.606,373.435z"/>
<path d="M107.815,400.646c-4.08-4.08-10.697-4.08-14.777,0s-4.08,10.697,0,14.778l30.775,30.775c2.041,2.041,4.715,3.06,7.388,3.06
	c2.674,0,5.349-1.02,7.388-3.06c4.08-4.08,4.08-10.697,0-14.778L107.815,400.646z"/>
</svg>