<svg xmlns="http://www.w3.org/2000/svg" viewBox="0 0 100 100" width="100" height="100">
  <circle cx="50" cy="50" r="50" fill="#1DB954"/>
  <path d="M75.5 41.5c-12.5-7.5-33-8-45-4.5-1.5 0.5-3-0.5-3.5-2s0.5-3 2-3.5c13.5-4 35.5-3 49.5 5 1.5 0.5 1.5 2.5 1 4s-2.5 1.5-4 1z" fill="#000"/>
  <path d="M72.5 51c-10.5-6.5-28-7-38-4-1.5 0.5-2.5-0.5-3-1.5s0.5-2.5 1.5-3c11.5-3.5 31-3 43 4.5 1 0.5 1.5 2 1 3s-2 1.5-3 1c-0.5 0-1-0.5-1.5-0z" fill="#000"/>
  <path d="M69.5 60c-9-5.5-24-6-32-3.5-1 0.5-2-0.5-2.5-1.5s0.5-2 1.5-2.5c9.5-3 26-2.5 36 4 1 0.5 1 1.5 0.5 2.5s-1.5 1-2.5 1c-0.5 0-0.5 0-1 0z" fill="#000"/>
</svg>